<svg width="100%" height="100%" id="svg" viewBox="0 0 1440 500" xmlns="http://www.w3.org/2000/svg" class="transition duration-300 ease-in-out delay-150"><path d="M 0,500 C 0,500 0,250 0,250 C 76.53240058910163,256.0478645066274 153.06480117820325,262.09572901325475 210,238 C 266.93519882179675,213.90427098674522 304.27319587628864,159.66494845360825 359,158 C 413.72680412371136,156.33505154639175 485.84241531664213,207.24447717231223 548,228 C 610.1575846833579,248.75552282768777 662.3571428571427,239.35714285714283 726,251 C 789.6428571428573,262.64285714285717 864.7290132547867,295.3269513991164 925,291 C 985.2709867452133,286.6730486008836 1030.7268041237112,245.33505154639175 1076,235 C 1121.2731958762888,224.66494845360825 1166.3637702503684,245.33284241531663 1227,253 C 1287.6362297496316,260.66715758468337 1363.8181148748158,255.33357879234168 1440,250 C 1440,250 1440,500 1440,500 Z" stroke="none" stroke-width="0" fill="#0693e3ff" class="transition-all duration-300 ease-in-out delay-150 path-0"></path></svg>
