<svg width="100%" height="100%" id="svg" viewBox="0 0 1440 500" xmlns="http://www.w3.org/2000/svg" class="transition duration-300 ease-in-out delay-150"><path d="M 0,500 C 0,500 0,250 0,250 C 42.77227540500736,240.16991899852724 85.54455081001473,230.33983799705447 150,227 C 214.45544918998527,223.66016200294553 300.59407216494844,226.81056701030928 366,251 C 431.40592783505156,275.1894329896907 476.0791605301914,320.4178939617084 540,301 C 603.9208394698086,281.5821060382916 687.0892857142858,197.51785714285714 745,200 C 802.9107142857142,202.48214285714286 835.5636966126657,291.51067746686306 892,306 C 948.4363033873343,320.48932253313694 1028.6559278350514,260.4394329896908 1096,248 C 1163.3440721649486,235.56056701030926 1217.8125920471282,270.7315905743741 1273,279 C 1328.1874079528718,287.2684094256259 1384.0937039764358,268.63420471281296 1440,250 C 1440,250 1440,500 1440,500 Z" stroke="none" stroke-width="0" fill="#0693e3ff" class="transition-all duration-300 ease-in-out delay-150 path-0"></path></svg>


